<svg width="1189" height="503" viewBox="0 0 1189 503" fill="none" xmlns="http://www.w3.org/2000/svg" class="svg-contact-image">
<path d="M1046.81 317.891C986.234 363.175 969.153 442.732 969.153 442.732C969.153 442.732 1050.29 448.87 1110.87 403.586C1171.45 358.303 1188.53 278.746 1188.53 278.746C1188.53 278.746 1107.39 272.608 1046.81 317.891Z" fill="#3F3D56"/>
<path d="M969.2 441.964C969.2 441.964 968.311 441.468 966.701 440.479C965.418 439.69 963.656 438.589 961.528 437.183C942.491 424.64 893.176 387.745 872.949 330.819C847.642 259.545 877.525 183.861 877.525 183.861C877.525 183.861 942.711 220.507 970.402 286.33C971.608 289.165 972.725 292.058 973.776 295.006C995.797 357.021 976.033 422.374 970.529 438.304C969.701 440.689 969.2 441.964 969.2 441.964Z" fill="#00D7D7"/>
<path d="M969.494 444.214L968.567 443.541C967.904 443.062 902.156 394.759 885.262 321.543C868.367 248.327 906.303 176.1 906.689 175.379L907.229 174.367L908.156 175.04C908.82 175.519 974.568 223.822 991.461 297.038C1008.36 370.254 970.42 442.481 970.034 443.202L969.494 444.214ZM907.92 177.363C903.361 186.46 871.588 253.392 887.211 321.094C902.832 388.796 960.719 435.038 968.803 441.218C973.363 432.121 1005.13 365.189 989.512 297.487C973.891 229.785 916.004 183.543 907.92 177.363Z" fill="#3F3D56"/>
<path opacity="0.1" d="M970.529 438.304C969.052 439.164 967.761 439.888 966.701 440.479C964.366 441.755 963.071 442.397 963.071 442.397C963.071 442.397 962.458 440.555 961.528 437.183C956.399 418.738 941.715 354.454 966.29 295.409C967.583 292.316 968.953 289.29 970.402 286.33C971.608 289.165 972.725 292.057 973.776 295.006C995.797 357.021 976.033 422.374 970.529 438.304Z" fill="black"/>
<path d="M1072.1 339.081C1043.05 408.913 970.107 444.975 970.107 444.975C970.107 444.975 944.267 367.817 973.319 297.985C1002.37 228.153 1075.31 192.092 1075.31 192.092C1075.31 192.092 1101.15 269.25 1072.1 339.081Z" fill="#00D7D7"/>
<path d="M1073.84 194.785L969.893 442.567L971.737 443.341L1075.68 195.559L1073.84 194.785Z" fill="#3F3D56"/>
<path d="M1177.5 465.491C1177.5 474.856 1123.63 483.422 1034.57 489.997C1018.38 491.188 1001.02 492.314 982.615 493.374C966.705 494.288 950.036 495.147 932.606 495.952C915.714 496.719 898.176 497.431 879.994 498.089C822.558 500.178 759.072 501.678 691.624 502.429C675.259 502.608 658.67 502.75 641.859 502.853C624.359 502.951 606.656 503 588.75 503C263.59 503 0 486.212 0 465.491C0 444.771 263.59 427.983 588.75 427.983C728.733 427.983 857.295 431.099 958.335 436.287C962.054 436.483 965.736 436.673 969.38 436.858C969.402 436.871 969.427 436.877 969.451 436.875C1096.73 443.76 1177.5 454.022 1177.5 465.491Z" fill="#3F3D56"/>
<path opacity="0.15" d="M1177.5 465.491C1177.5 474.856 1123.63 483.422 1034.57 489.997C1018.38 491.188 1001.02 492.314 982.615 493.374C966.705 494.288 950.036 495.147 932.606 495.952C915.714 496.719 898.176 497.431 879.994 498.089C822.558 500.178 759.072 501.678 691.624 502.429C675.259 502.608 658.67 502.75 641.859 502.853C624.359 502.951 606.656 503 588.75 503C263.59 503 0 486.212 0 465.491C0 444.771 263.59 427.983 588.75 427.983C728.733 427.983 857.295 431.099 958.335 436.287C962.054 436.483 965.736 436.673 969.38 436.858C969.402 436.871 969.427 436.877 969.451 436.875C1096.73 443.76 1177.5 454.022 1177.5 465.491Z" fill="black"/>
<path d="M1132.25 458.89C1132.25 466.72 1082.03 473.88 999 479.38C983.91 480.37 967.72 481.31 950.57 482.2C935.74 482.96 920.2 483.677 903.95 484.35C888.2 485 871.85 485.597 854.9 486.14C801.35 487.89 742.16 489.14 679.28 489.77C664.03 489.92 648.567 490.037 632.89 490.12C616.57 490.21 600.067 490.253 583.38 490.25C280.24 490.25 34.5 476.21 34.5 458.89C34.5 441.57 280.24 427.53 583.38 427.53C650.41 427.53 714.63 428.22 774.01 429.48H774.16C830.32 430.67 882.15 432.37 927.93 434.48C931.4 434.64 934.833 434.797 938.23 434.95C938.25 434.966 938.275 434.973 938.3 434.97C959.27 435.99 978.89 437.09 996.97 438.27C997.17 438.28 997.37 438.3 997.57 438.31C1081.46 443.82 1132.25 451.01 1132.25 458.89Z" fill="#3F3D56"/>
<path opacity="0.1" d="M996.97 438.27C989.54 486.58 942.69 470.39 886 470.39C826.11 470.39 777.21 488.46 774.16 429.48C830.32 430.67 882.15 432.37 927.93 434.48C931.4 434.64 934.833 434.797 938.23 434.95C938.25 434.966 938.275 434.973 938.3 434.97C959.27 435.99 978.89 437.09 996.97 438.27Z" fill="black"/>
<path d="M317.277 423.573C317.277 440.99 306.924 447.071 294.151 447.071C293.856 447.071 293.56 447.067 293.266 447.06C292.674 447.048 292.087 447.02 291.508 446.979C279.981 446.164 271.026 439.77 271.026 423.573C271.026 406.814 292.442 385.664 294.056 384.095L294.058 384.093C294.12 384.032 294.151 384.002 294.151 384.002C294.151 384.002 317.277 406.159 317.277 423.573Z" fill="#00D7D7"/>
<path d="M293.309 444.406L301.767 432.589L293.287 445.704L293.266 447.06C292.674 447.048 292.087 447.02 291.508 446.979L292.419 429.556L292.413 429.42L292.428 429.397L292.515 427.749L284.014 414.602L292.54 426.515L292.562 426.864L293.249 413.7L285.972 400.114L293.338 411.39L294.056 384.095L294.058 384.002V384.093L293.939 405.616L301.184 397.083L293.909 407.47L293.717 419.257L300.484 407.944L293.69 420.991L293.583 427.545L303.402 411.799L293.545 429.831L293.309 444.406Z" fill="#3F3D56"/>
<path d="M774 411.393C774 345.119 824.144 291.393 886 291.393C947.856 291.393 998 345.119 998 411.393C998 477.668 947.856 458.393 886 458.393C824.144 458.393 774 477.668 774 411.393Z" fill="#3F3D56"/>
<path d="M153.384 332.331H151.384V467.512H153.384V332.331Z" fill="#3F3D56"/>
<path d="M152.384 351.448C162.941 351.448 171.5 342.889 171.5 332.331C171.5 321.774 162.941 313.215 152.384 313.215C141.826 313.215 133.267 321.774 133.267 332.331C133.267 342.889 141.826 351.448 152.384 351.448Z" fill="#3F3D56"/>
<path d="M152.384 415.646C152.384 415.646 149.653 356.91 93.669 363.737Z" fill="#3F3D56"/>
<path d="M709.014 354.574C709.513 356.338 710.07 358.091 710.665 359.832C707.995 357.207 705.375 354.512 702.705 351.903C703.776 352.237 704.844 352.57 705.854 352.966C706.955 353.403 708.013 353.941 709.014 354.574V354.574ZM696.082 345.809C680.346 332.127 662.114 321.535 645.989 308.271C654.795 312.603 663.36 317.651 671.856 322.491C681.935 328.233 692.133 333.751 702.451 339.046C700.77 341.679 698.609 343.973 696.082 345.809V345.809ZM702.812 311.358C703.063 311.102 703.314 310.844 703.566 310.585C703.573 312.529 703.588 314.346 703.611 315.996C702.201 315.529 700.795 315.049 699.393 314.557C700.599 313.564 701.741 312.495 702.812 311.358V311.358ZM564.207 348.398C570.691 341.074 576.324 333.039 580.997 324.446C587.244 335.359 597.395 343.229 606.029 352.369C592.118 350.533 578.184 349.017 564.207 348.398Z" fill="url(#paint0_linear)"/>
<path d="M117.277 449.573C117.277 466.99 106.924 473.071 94.1515 473.071C93.8556 473.071 93.5598 473.067 93.2661 473.06C92.6744 473.048 92.0869 473.02 91.508 472.979C79.9805 472.164 71.0262 465.77 71.0262 449.573C71.0262 432.814 92.4424 411.664 94.0557 410.095L94.0578 410.093C94.1196 410.032 94.1515 410.002 94.1515 410.002C94.1515 410.002 117.277 432.159 117.277 449.573Z" fill="#00D7D7"/>
<path d="M93.3086 470.406L101.767 458.589L93.2873 471.704L93.2661 473.06C92.6744 473.048 92.0869 473.02 91.508 472.979L92.419 455.556L92.4126 455.42L92.4275 455.397L92.5148 453.749L84.0139 440.602L92.5403 452.515L92.5616 452.864L93.249 439.7L85.972 426.114L93.3384 437.39L94.0557 410.095L94.0578 410.002V410.093L93.9386 431.616L101.184 423.083L93.9089 433.47L93.7173 445.257L100.484 433.944L93.6896 446.991L93.5832 453.545L103.402 437.799L93.5449 455.831L93.3086 470.406Z" fill="#3F3D56"/>
<path d="M129 311C134.523 311 139 306.523 139 301C139 295.477 134.523 291 129 291C123.477 291 119 295.477 119 301C119 306.523 123.477 311 129 311Z" fill="#00D7D7"/>
<path d="M771.988 161.032C771.988 161.032 808.266 153 812.266 185C816.266 217 793 223.04 793 223.04L778.266 227L721.266 212L729.266 189L771.988 161.032Z" fill="#2F2E41"/>
<path d="M758.915 162.797C785.99 162.797 807.939 140.849 807.939 113.774C807.939 86.6989 785.99 64.7504 758.915 64.7504C731.84 64.7504 709.892 86.6989 709.892 113.774C709.892 140.849 731.84 162.797 758.915 162.797Z" fill="#2F2E41"/>
<path d="M586.65 215.572L596.611 217.575L630.477 267.652L615.536 269.655L586.65 215.572Z" fill="#2F2E41"/>
<path d="M345.722 418.748C348.407 427.587 351.715 436.224 355.621 444.596C366.846 442.247 377.89 439.1 388.668 435.18C389 435.059 382.487 426.54 381.803 425.844C379.222 423.218 375.882 420.15 372.47 418.666C369.03 417.169 364.793 418.311 361.111 418.499C355.986 418.761 350.857 418.844 345.722 418.748Z" fill="#FBBEBE"/>
<path d="M372.529 432.126C366.915 430.369 363.503 424.719 361.219 419.271C358.936 413.823 357.094 407.882 352.763 403.884C351.103 403.963 349.766 405.312 348.945 406.764C348.124 408.217 347.635 409.854 346.686 411.225C344.88 413.835 341.705 415.097 339.434 417.31C337.053 419.63 335.751 422.913 333.286 425.144C330.191 427.945 325.815 428.641 321.753 429.567C315.471 431.002 309.404 433.252 303.705 436.259C301.606 437.524 299.361 438.53 297.019 439.255C294.442 439.75 291.804 439.838 289.2 439.516L271.243 438.237C269.645 438.031 268.023 438.102 266.449 438.446C262.758 439.483 260.466 443.603 260.737 447.447C261.008 451.291 263.399 454.736 266.42 457.109C269.545 459.345 272.994 461.093 276.646 462.29C292.289 468.195 308.393 472.795 324.794 476.044L324.803 479.598C336.208 485.206 348.746 488.126 361.455 488.132C362.395 488.203 363.337 488.039 364.198 487.657C365.459 486.972 366.042 485.5 366.508 484.139C370.817 471.54 373.338 458.399 373.998 445.101C374.317 441.729 374.056 438.328 373.225 435.045C372.247 431.812 375.615 433.171 372.499 431.905" fill="#2F2E41"/>
<path d="M716.934 364.43C663.694 367.618 611.073 352.035 557.765 350.369C551.137 350.162 544.438 350.177 537.966 351.63C531.121 353.168 524.739 356.266 518.373 359.227C489.782 372.53 460.205 383.548 430.663 394.551L396.727 407.191C389.946 409.717 382.919 412.282 375.7 411.841C372.465 411.643 368.493 411.153 366.672 413.85C361.151 422.029 363.76 434.046 367.408 443.225C368.592 446.204 370.595 449.419 373.768 449.758C376.002 449.997 378.079 448.704 380.249 448.122C386.426 446.468 392.585 450.623 398.942 451.299C406.796 452.135 414.088 447.661 421.501 444.921C433.796 440.377 447.239 440.52 460.161 438.368C481.83 434.759 501.913 424.698 520.687 413.235C527.835 408.87 535.069 404.194 543.281 402.597C552.723 400.761 562.422 403.194 571.679 405.813C593.754 412.06 615.487 419.46 636.786 427.984C648.001 432.472 659.136 437.284 670.804 440.389C696.045 447.034 722.746 445.477 747.044 435.943C755.565 432.575 764.825 426.622 765.313 417.428C765.591 412.186 761.526 407.568 758.809 403.085C757.067 400.21 755.324 397.334 753.427 394.56C744.246 381.139 733.105 363.462 716.934 364.43Z" fill="#2F2E41"/>
<path opacity="0.1" d="M716.934 364.43C663.694 367.618 611.073 352.035 557.765 350.369C551.137 350.162 544.438 350.177 537.966 351.63C531.121 353.168 524.739 356.266 518.373 359.227C489.782 372.53 460.205 383.548 430.663 394.551L396.727 407.191C389.946 409.717 382.919 412.282 375.7 411.841C372.465 411.643 368.493 411.153 366.672 413.85C361.151 422.029 363.76 434.046 367.408 443.225C368.592 446.204 370.595 449.419 373.768 449.758C376.002 449.997 378.079 448.704 380.249 448.122C386.426 446.468 392.585 450.623 398.942 451.299C406.796 452.135 414.088 447.661 421.501 444.921C433.796 440.377 447.239 440.52 460.161 438.368C481.83 434.759 501.913 424.698 520.687 413.235C527.835 408.87 535.069 404.194 543.281 402.597C552.723 400.761 562.422 403.194 571.679 405.813C593.754 412.06 615.487 419.46 636.786 427.984C648.001 432.472 659.136 437.284 670.804 440.389C696.045 447.034 722.746 445.477 747.044 435.943C755.565 432.575 764.825 426.622 765.313 417.428C765.591 412.186 761.526 407.568 758.809 403.085C757.067 400.21 755.324 397.334 753.427 394.56C744.246 381.139 733.105 363.462 716.934 364.43Z" fill="black"/>
<path d="M447.939 421.34C456.273 424.184 464.68 426.799 473.159 429.185C477.906 421.391 486.786 415.968 488.81 407.058C488.935 406.671 488.936 406.253 488.811 405.865C488.595 405.484 488.26 405.184 487.857 405.011C481.783 401.646 475.038 399.67 468.109 399.225C462.636 398.879 460.139 404.592 457.658 408.608C456.654 410.234 450.169 422.101 447.939 421.34Z" fill="#FBBEBE"/>
<path d="M459.62 415.651C454.699 414.62 449.882 411.974 447.37 407.596C446.192 405.544 444.94 402.779 442.59 402.934C440.408 403.078 439.406 405.681 438.915 407.823C437.075 415.845 435.269 423.931 432.041 431.497C428.814 439.064 424.04 446.167 417.306 450.851C414.218 452.999 410.775 454.603 407.757 456.849C405.044 458.867 402.68 461.397 399.684 462.958C397.679 463.877 395.61 464.648 393.493 465.267C390.378 466.352 387.402 467.8 384.626 469.582C382.186 471 380.117 472.977 378.589 475.351C377.839 476.548 377.4 477.914 377.313 479.324C377.226 480.734 377.494 482.144 378.092 483.424C378.735 484.478 379.594 485.383 380.613 486.081C381.631 486.778 382.786 487.252 384.001 487.471C386.427 487.889 388.902 487.951 391.346 487.655C401.053 486.94 410.749 486.075 420.444 485.211C424.546 484.947 428.622 484.38 432.64 483.515C434.764 483.003 436.845 482.324 438.961 481.779C442.587 480.844 446.304 480.303 450.046 480.164C451.133 480.072 452.228 480.172 453.281 480.46C455.527 481.194 457.12 483.428 459.439 483.882C460.926 484.024 462.426 483.823 463.824 483.296C470.809 481.385 478.149 481.437 485.378 481.047C488.563 480.875 492.291 480.27 493.752 477.419C495.574 473.864 492.552 469.888 491.348 466.076C490.748 463.64 490.413 461.146 490.35 458.638C489.794 452.44 487.975 446.421 485.003 440.954C482.532 436.416 479.158 431.399 480.895 426.53C481.484 424.877 482.656 423.339 482.539 421.587C482.028 413.895 464.083 416.587 459.62 415.651Z" fill="#2F2E41"/>
<path d="M637.094 279.017C627.66 274.86 620.101 267.353 615.881 257.946C614.992 255.925 614.261 253.814 613.405 251.773C610.613 244.994 606.271 238.964 600.727 234.167C599.34 232.991 597.714 231.869 596.02 232.176C594.395 232.472 593.116 234.08 592.559 235.883C592.082 237.74 591.963 239.67 592.207 241.572C592.681 246.054 593.452 250.499 594.514 254.879L597.094 266.635C597.414 268.443 597.953 270.205 598.7 271.883C599.814 273.861 601.282 275.618 603.031 277.064C605.388 279.235 607.783 281.348 610.217 283.403C613.597 286.646 618.004 288.606 622.676 288.943C633.249 290.903 644.002 293.727 652.924 300.627C652.825 300.551 652.886 292.742 652.732 291.847C652.323 289.481 652.005 287.138 650.466 285.539C647.007 281.945 641.307 280.89 637.094 279.017Z" fill="#FBBEBE"/>
<path opacity="0.1" d="M637.094 279.017C627.66 274.86 620.101 267.353 615.881 257.946C614.992 255.925 614.261 253.814 613.405 251.773C610.613 244.994 606.271 238.964 600.727 234.167C599.34 232.991 597.714 231.869 596.02 232.176C594.395 232.472 593.116 234.08 592.559 235.883C592.082 237.74 591.963 239.67 592.207 241.572C592.681 246.054 593.452 250.499 594.514 254.879L597.094 266.635C597.414 268.443 597.953 270.205 598.7 271.883C599.814 273.861 601.282 275.618 603.031 277.064C605.388 279.235 607.783 281.348 610.217 283.403C613.597 286.646 618.004 288.606 622.676 288.943C633.249 290.903 644.002 293.727 652.924 300.627C652.825 300.551 652.886 292.742 652.732 291.847C652.323 289.481 652.005 287.138 650.466 285.539C647.007 281.945 641.307 280.89 637.094 279.017Z" fill="black"/>
<path d="M745.521 189.031C752.672 189.031 758.47 183.202 758.47 176.011C758.47 168.82 752.672 162.991 745.521 162.991C738.37 162.991 732.572 168.82 732.572 176.011C732.572 183.202 738.37 189.031 745.521 189.031Z" fill="#2F2E41"/>
<path d="M737.505 168.145C733.99 167.755 730.086 167.466 727.27 169.616C725.776 170.938 724.581 172.564 723.768 174.385C721.06 179.468 718.391 184.647 717.028 190.248C715.872 195 715.68 199.97 714.249 204.645C711.594 213.319 704.791 220.639 704.013 229.681C703.665 233.727 704.343 238.464 701.391 241.236C700.662 241.849 699.884 242.401 699.064 242.886C697.017 244.257 695.281 246.042 693.968 248.127C692.863 249.882 692.012 251.899 690.348 253.132C687.715 255.084 683.343 254.885 682.045 257.904C680.711 261.007 684.096 264.46 683.312 267.746C682.673 270.423 679.689 271.65 677.634 273.469C675.001 275.799 673.797 279.315 672.7 282.665C668.368 283.485 663.911 283.357 659.633 282.29C655.356 281.223 651.36 279.243 647.921 276.486C651.536 285.388 651.614 295.214 651.771 304.829C651.822 307.948 651.725 311.448 649.498 313.621C659.807 313.841 669.861 316.634 679.921 318.908C684.318 319.902 689.091 320.764 693.191 318.884C695.491 317.652 697.55 316.014 699.268 314.05C704.741 308.5 710.482 302.446 711.821 294.747C712.571 290.434 711.845 286.007 712.043 281.632C712.289 276.212 713.947 270.974 715.366 265.739C718.269 255.025 720.215 244.073 721.181 233.014C721.777 226.189 727.671 220.697 730.774 214.598C736.632 203.084 742.618 191.092 743.06 178.167C743.207 173.844 741.781 168.619 737.505 168.145Z" fill="#2F2E41"/>
<path opacity="0.1" d="M737.505 168.145C733.99 167.755 730.086 167.466 727.27 169.616C725.776 170.938 724.581 172.564 723.768 174.385C721.06 179.468 718.391 184.647 717.028 190.248C715.872 195 715.68 199.97 714.249 204.645C711.594 213.319 704.791 220.639 704.013 229.681C703.665 233.727 704.343 238.464 701.391 241.236C700.662 241.849 699.884 242.401 699.064 242.886C697.017 244.257 695.281 246.042 693.968 248.127C692.863 249.882 692.012 251.899 690.348 253.132C687.715 255.084 683.343 254.885 682.045 257.904C680.711 261.007 684.096 264.46 683.312 267.746C682.673 270.423 679.689 271.65 677.634 273.469C675.001 275.799 673.797 279.315 672.7 282.665C668.368 283.485 663.911 283.357 659.633 282.29C655.356 281.223 651.36 279.243 647.921 276.486C651.536 285.388 651.614 295.214 651.771 304.829C651.822 307.948 651.725 311.448 649.498 313.621C659.807 313.841 669.861 316.634 679.921 318.908C684.318 319.902 689.091 320.764 693.191 318.884C695.491 317.652 697.55 316.014 699.268 314.05C704.741 308.5 710.482 302.446 711.821 294.747C712.571 290.434 711.845 286.007 712.043 281.632C712.289 276.212 713.947 270.974 715.366 265.739C718.269 255.025 720.215 244.073 721.181 233.014C721.777 226.189 727.671 220.697 730.774 214.598C736.632 203.084 742.618 191.092 743.06 178.167C743.207 173.844 741.781 168.619 737.505 168.145Z" fill="black"/>
<path d="M725.378 375.643C714.29 370.368 706.176 360.53 697.211 352.112C680.095 336.04 659.165 324.663 641.169 309.595C629.241 299.607 618.572 287.977 605.464 279.615C593.919 272.264 580.833 267.679 567.225 266.216C565.666 265.949 564.067 266.029 562.542 266.45C560.823 267.21 559.325 268.395 558.189 269.893C552.382 276.446 547.22 283.544 542.776 291.088C519.966 329.809 487.567 362.366 460.724 398.378C459.867 399.225 459.358 400.362 459.299 401.566C459.239 402.77 459.634 403.952 460.403 404.879L465.864 415.579C468.919 421.566 473.814 428.54 480.401 427.35C483.412 426.807 485.81 424.592 488.027 422.473L512.539 399.041L538.24 374.474C553.298 360.08 568.614 345.351 578.43 326.939C586.102 340.245 599.713 348.953 609.052 361.134C612.604 365.767 615.506 370.862 618.677 375.767C623.76 383.629 629.54 391.008 635.312 398.375L664.792 436.003C668.812 441.135 672.944 446.369 678.442 449.85C685.424 454.27 693.916 455.435 702.134 456.171C713.208 457.162 724.328 457.564 735.445 457.375C743.921 457.23 752.662 456.674 760.268 452.91C767.873 449.145 774.121 441.418 773.726 432.904C773.52 428.476 771.595 424.323 769.477 420.436C758.946 401.115 745.184 385.066 725.378 375.643Z" fill="#2F2E41"/>
<path d="M753.489 195.04C758.99 195.04 763.45 190.556 763.45 185.025C763.45 179.493 758.99 175.009 753.489 175.009C747.988 175.009 743.529 179.493 743.529 185.025C743.529 190.556 747.988 195.04 753.489 195.04Z" fill="#2F2E41"/>
<path d="M751.287 177.499C753.715 181.787 753.717 187.124 752.381 191.871C751.045 196.618 748.493 200.913 745.97 205.144C743.486 209.308 740.974 213.51 737.642 217.025C753.016 217.761 767.921 211.731 781.488 204.423C792.404 198.545 803.296 191.288 809.121 180.301C805.714 181.325 801.96 180.315 798.944 178.42C796.016 176.379 793.39 173.934 791.146 171.157L783.428 162.474C781.615 160.583 780.022 158.493 778.68 156.243C777.009 153.165 776.3 149.656 776.643 146.171C773.576 149.38 770.149 152.224 766.429 154.646C760.916 158.234 754.839 160.837 749.314 164.404C747.355 165.669 742.999 167.703 744.12 170.264C745.214 172.761 749.734 174.756 751.287 177.499Z" fill="#FBBEBE"/>
<path opacity="0.1" d="M751.287 177.499C753.715 181.787 753.717 187.124 752.381 191.871C751.045 196.618 748.493 200.913 745.97 205.144C743.486 209.308 740.974 213.51 737.642 217.025C753.016 217.761 767.921 211.731 781.488 204.423C792.404 198.545 803.296 191.288 809.121 180.301C805.714 181.325 801.96 180.315 798.944 178.42C796.016 176.379 793.39 173.934 791.146 171.157L783.428 162.474C781.615 160.583 780.022 158.493 778.68 156.243C777.009 153.165 776.3 149.656 776.643 146.171C773.576 149.38 770.149 152.224 766.429 154.646C760.916 158.234 754.839 160.837 749.314 164.404C747.355 165.669 742.999 167.703 744.12 170.264C745.214 172.761 749.734 174.756 751.287 177.499Z" fill="black"/>
<path d="M751.497 179.015C748.608 183.874 747.988 189.611 751.497 194.039C751.934 194.589 753.556 198.009 754.256 198.041C754.934 197.985 755.564 197.666 756.011 197.153C759.745 193.74 762.48 189.387 765.76 185.531C769.041 181.675 773.178 178.162 778.165 177.385C784.184 176.448 789.995 179.637 795.261 182.714C797.45 183.992 799.72 185.347 801.098 187.482C802.207 189.486 802.861 191.711 803.014 193.996C804.833 207.702 804.793 221.581 804.75 235.408C804.719 245.403 804.681 255.469 802.791 265.282C801.813 270.354 800.346 275.332 799.651 280.451C799.142 284.968 798.935 289.515 799.033 294.061L799.018 313.09C798.891 316.585 799.139 320.083 799.756 323.525C800.66 327.695 802.633 331.544 803.952 335.601C805.312 340.263 806.242 345.041 806.732 349.873L809.336 369.578C810.157 375.784 810.763 382.573 807.01 387.568C805.314 389.827 803.084 391.635 801.364 393.875C794.922 402.264 796.989 414.233 794.302 424.482C792.181 431.987 787.823 438.668 781.808 443.633C777.205 447.544 771.26 450.621 765.333 449.521C757.332 448.035 752.526 439.693 750.345 431.811C748.164 423.929 747.369 415.349 742.642 408.69C738.783 403.253 732.804 399.833 727.397 395.952C721.991 392.07 716.708 387.067 715.531 380.492C715.017 377.621 715.337 374.664 715.032 371.763C714.602 368.087 713.192 364.594 710.95 361.649C708.707 358.704 705.715 356.417 702.285 355.024C698.19 353.432 693.131 352.863 690.825 349.105C696.78 345.749 700.733 339.547 702.816 333.01C704.898 326.474 705.323 319.537 705.732 312.686L707.101 289.788C707.712 279.555 707.989 269.413 712.496 260.217C714.511 256.106 717.017 252.258 719.114 248.189C721.889 242.48 724.257 236.583 726.204 230.541C729.471 221.159 732.738 211.774 735.65 202.274C737.038 197.747 738.371 193.134 740.845 189.103C743.318 185.071 746.867 179.886 751.497 179.015Z" fill="#00D7D7"/>
<path d="M700.65 327.777L706.706 327.995L707.997 318.838C708.167 317.007 708.599 315.209 709.28 313.5C710.279 311.693 711.445 309.984 712.763 308.395C718.727 299.971 718.292 288.784 719.77 278.55C721.74 264.901 727.442 252.122 733.082 239.55L744.844 213.333C747.19 208.883 748.312 203.889 748.096 198.863C748.2 194.81 749.401 180.064 749.505 176.011C749.544 174.511 746.198 175.344 745.521 174.008C744.045 171.097 742.028 178.991 739.273 180.722C736.518 182.454 734.998 185.591 733.828 188.639C731.293 195.243 729.744 202.188 727.382 208.857C725.02 215.525 721.716 222.077 716.402 226.72C713.987 228.83 711.205 230.503 708.924 232.759C701.607 239.995 700.894 251.422 700.636 261.739C700.483 267.872 699.298 327.777 700.65 327.777Z" fill="#2F2E41"/>
<path d="M787.878 168.083C781.993 170.397 778.766 176.779 777.112 182.911C775.458 189.043 774.785 195.579 771.624 201.081C764.235 213.941 745.395 217.689 740.181 231.586C738.476 236.133 738.549 241.122 738.09 245.96C737.144 255.918 733.87 265.538 732.902 275.493C732.153 283.206 732.8 290.979 733.447 298.701L740.032 377.236C740.983 388.58 740.959 400.766 738.06 411.77C744.726 413.071 751.658 411.33 757.843 408.51C764.027 405.691 769.673 401.819 775.626 398.535C785.863 392.887 797.152 388.886 806.117 381.363C807.739 380.099 809.13 378.563 810.225 376.822C812.021 373.717 812.169 369.961 813.023 366.473C813.798 363.691 814.785 360.971 815.975 358.339C819.256 350.425 822.115 342.342 824.54 334.125C826.206 328.672 827.522 323.118 828.479 317.498C829.198 313.021 829.586 308.499 829.973 303.981C830.451 296.908 831.856 289.928 834.153 283.222C839.881 267.229 843.124 250.452 843.77 233.476C843.964 231.024 843.797 228.557 843.275 226.153C842.495 223.172 840.735 220.566 839.292 217.847C836.556 212.692 834.912 207.02 832.33 201.786C826.494 189.958 816.189 180.991 805.393 173.476C800.091 169.785 793.884 165.721 787.878 168.083Z" fill="#2F2E41"/>
<path d="M650.214 296.202C645.657 293.549 641.102 290.691 637.672 286.674C636.029 284.749 634.673 282.588 633.002 280.687C628.939 276.063 623.181 273.196 617.228 271.697C611.275 270.198 605.084 269.97 598.948 269.919C594.843 269.884 590.636 269.943 586.793 271.394C582.95 272.845 579.484 275.974 578.741 280.034C577.847 284.919 581.039 289.678 584.871 292.812C588.436 295.722 592.631 297.759 597.123 298.76C600.787 299.401 604.485 299.835 608.198 300.057C630.002 302.34 649.454 314.208 668.561 325.014C685.341 334.504 702.448 343.377 719.882 351.633C720.573 346.411 720.861 341.145 720.742 335.879C720.653 331.947 720.459 325.953 716.745 323.644C712.417 320.954 705.292 320.336 700.41 318.736C689.176 315.053 678.203 310.614 667.568 305.451C661.671 302.587 655.886 299.505 650.214 296.202Z" fill="#FBBEBE"/>
<path d="M745.521 173.006C766.975 173.006 784.367 155.518 784.367 133.946C784.367 112.374 766.975 94.8858 745.521 94.8858C724.067 94.8858 706.675 112.374 706.675 133.946C706.675 155.518 724.067 173.006 745.521 173.006Z" fill="#FBBEBE"/>
<path d="M798.984 212.368C795.514 216.413 793.777 221.624 791.446 226.425C786.649 236.302 779.126 244.781 775.359 255.1C771.384 265.986 771.517 278.935 763.726 287.486C762.371 288.972 760.736 290.407 760.344 292.385C760.112 293.559 760.353 294.815 759.948 295.941C758.832 299.047 753.747 299.204 752.798 302.366C752.52 303.291 752.676 304.316 752.333 305.219C751.553 307.264 748.852 307.576 747.047 308.801C743.276 311.359 744.036 317.306 741.346 320.993C739.217 323.91 735.203 324.887 731.639 324.393C728.074 323.898 724.809 322.192 721.563 320.631C720.448 320.003 719.213 319.615 717.939 319.493C716.434 319.544 714.978 320.041 713.755 320.921C706.58 325.484 703.211 334.521 703.261 343.058C703.311 351.594 706.244 359.819 709.248 367.804C709.658 369.151 710.33 370.404 711.228 371.49C713.607 374.006 717.75 373.6 720.91 372.2C724.069 370.801 726.939 368.599 730.337 367.983C736.348 366.894 742.223 371.025 748.321 370.685C752.789 370.436 756.743 367.838 760.454 365.325C766.379 361.314 772.413 357.203 776.769 351.511C779.436 348.026 781.39 344.053 783.716 340.328C786.706 335.758 789.983 331.382 793.526 327.226L815.926 299.808C821.308 293.948 825.014 286.748 826.654 278.963C828.784 271.656 830.928 264.265 831.297 256.659C831.6 250.399 830.691 244.148 829.67 237.965C828.665 231.878 827.52 225.724 824.846 220.171C819.98 210.064 808.132 201.7 798.984 212.368Z" fill="#2F2E41"/>
<path d="M812.024 98.2497C839.099 98.2497 861.047 76.3012 861.047 49.2263C861.047 22.1515 839.099 0.202988 812.024 0.202988C784.949 0.202988 763.001 22.1515 763.001 49.2263C763.001 76.3012 784.949 98.2497 812.024 98.2497Z" fill="#2F2E41"/>
<path d="M854.309 89.8208C847.964 94.4069 840.613 97.4066 832.871 98.5691C825.129 99.7316 817.221 99.0231 809.808 96.5028C802.396 93.9825 795.695 89.7237 790.267 84.0828C784.838 78.4418 780.839 71.5828 778.604 64.0795C779.45 70.8036 781.68 77.2795 785.155 83.0981C788.629 88.9168 793.273 93.9518 798.791 97.8854C804.31 101.819 810.584 104.566 817.218 105.952C823.852 107.338 830.701 107.334 837.333 105.94C843.965 104.546 850.236 101.792 855.75 97.8516C861.264 93.9114 865.902 88.8709 869.369 83.0481C872.837 77.2254 875.06 70.7469 875.897 64.0217C876.735 57.2966 876.169 50.4708 874.236 43.9754C875.334 52.702 874.063 61.5633 870.557 69.6297C867.051 77.6961 861.439 84.6704 854.309 89.8208V89.8208Z" fill="#2F2E41"/>
<path d="M771.988 157.895C791.843 157.895 807.939 141.799 807.939 121.944C807.939 102.089 791.843 85.9938 771.988 85.9938C752.133 85.9938 736.038 102.089 736.038 121.944C736.038 141.799 752.133 157.895 771.988 157.895Z" fill="#2F2E41"/>
<path d="M741.757 133.383C759.356 133.383 773.622 122.226 773.622 108.463C773.622 94.6998 759.356 83.5426 741.757 83.5426C724.158 83.5426 709.892 94.6998 709.892 108.463C709.892 122.226 724.158 133.383 741.757 133.383Z" fill="#2F2E41"/>
<path d="M753.998 153.319C756.14 151.577 755.758 147.559 753.145 144.346C750.532 141.132 746.677 139.939 744.534 141.681C742.392 143.423 742.773 147.441 745.387 150.655C748 153.868 751.855 155.061 753.998 153.319Z" fill="#FBBEBE"/>
<path d="M714.277 465.573C714.277 482.99 703.924 489.071 691.151 489.071C690.856 489.071 690.56 489.067 690.266 489.06C689.674 489.048 689.087 489.02 688.508 488.979C676.981 488.164 668.026 481.77 668.026 465.573C668.026 448.814 689.442 427.664 691.056 426.095L691.058 426.093C691.12 426.032 691.151 426.002 691.151 426.002C691.151 426.002 714.277 448.159 714.277 465.573Z" fill="#00D7D7"/>
<path d="M690.309 486.406L698.767 474.589L690.287 487.704L690.266 489.06C689.674 489.048 689.087 489.02 688.508 488.979L689.419 471.556L689.413 471.42L689.427 471.397L689.515 469.749L681.014 456.602L689.54 468.515L689.562 468.864L690.249 455.7L682.972 442.114L690.338 453.39L691.056 426.095L691.058 426.002V426.093L690.939 447.616L698.184 439.083L690.909 449.47L690.717 461.257L697.484 449.944L690.69 462.991L690.583 469.545L700.402 453.799L690.545 471.831L690.309 486.406Z" fill="#3F3D56"/>
<defs>
<linearGradient id="paint0_linear" x1="637.436" y1="359.832" x2="637.436" y2="308.271" gradientUnits="userSpaceOnUse">
<stop stop-color="#808080" stop-opacity="0.25"/>
<stop offset="0.53514" stop-color="#808080" stop-opacity="0.12"/>
<stop offset="1" stop-color="#808080" stop-opacity="0.1"/>
</linearGradient>
</defs>
</svg>
