<svg width="863" height="574" viewBox="0 0 863 574" fill="none" xmlns="http://www.w3.org/2000/svg">
<g clip-path="url(#clip0)">
<path d="M149.103 505.086C149.103 529.361 135.038 537.837 117.689 537.837C117.285 537.837 116.883 537.833 116.484 537.822C115.68 537.804 114.883 537.768 114.097 537.71C98.4386 536.574 86.2731 527.66 86.2731 505.086C86.2731 481.725 115.364 452.247 117.558 450.058L117.562 450.056C117.645 449.971 117.689 449.928 117.689 449.928C117.689 449.928 149.103 480.809 149.103 505.086Z" fill="#3AD29F"/>
<path d="M116.543 534.123L128.034 517.651L116.514 535.931L116.484 537.822C115.68 537.804 114.883 537.768 114.097 537.71L115.335 513.424L115.327 513.236L115.349 513.2L115.464 510.906L103.917 492.579L115.499 509.185L115.528 509.672L116.464 491.322L106.578 472.386L116.584 488.099L117.558 450.058L117.562 449.928V450.056L117.401 480.054L127.241 468.161L117.359 482.637L117.1 499.067L126.289 483.3L117.06 501.486L116.916 510.619L130.256 488.672L116.866 513.807L116.543 534.123Z" fill="#F2F2F2"/>
<path d="M548.227 364.72C539.834 333.46 493.231 310.421 456.868 304.474V289.458C457.54 289.201 458.208 288.936 458.873 288.664C458.682 285.663 458.094 282.703 457.126 279.865C472.659 273.385 486.072 262.501 495.794 248.484C506.028 237.496 513.739 224.301 518.366 209.862C522.992 195.424 524.417 180.108 522.535 165.033C520.653 149.957 515.512 135.504 507.489 122.728C499.465 109.952 488.761 99.1772 476.159 91.1898C479.615 88.9539 482.3 85.6609 483.835 81.7755C485.37 77.8901 485.677 73.6083 484.713 69.5342C483.749 65.4601 481.563 61.7993 478.463 59.0682C475.363 56.3371 471.506 54.6735 467.435 54.3121C470.758 46.2601 471.353 37.2971 469.125 28.8571C466.896 20.4171 461.973 12.9879 455.143 7.75828C448.313 2.52866 439.97 -0.199127 431.45 0.0113254C422.93 0.221778 414.726 3.35831 408.148 8.9191C413.95 5.75163 420.453 4.17914 427.022 4.35464C433.592 4.53015 440.006 6.4477 445.639 9.92066C451.273 13.3936 455.934 18.3037 459.169 24.1731C462.405 30.0425 464.104 36.6714 464.102 43.4146C464.102 43.7575 464.083 44.0954 464.074 44.4362C463.908 38.7803 462.546 33.2291 460.083 28.1664C457.62 23.1037 454.114 18.6503 449.809 15.1144C445.503 11.5785 440.501 9.0444 435.147 7.68738C429.793 6.33036 424.216 6.18281 418.801 7.25495C413.386 8.3271 408.262 10.5933 403.785 13.8969C399.308 17.2005 395.583 21.4626 392.869 26.3884C390.155 31.3141 388.516 36.786 388.066 42.4255C387.616 48.0651 388.365 53.7376 390.262 59.0509C387.353 59.696 384.633 61.0316 382.318 62.9506C380.004 64.8696 378.16 67.3185 376.934 70.1008C375.709 72.8831 375.136 75.9214 375.262 78.9718C375.388 82.0223 376.209 85 377.66 87.666C363.88 95.0947 351.993 105.738 342.954 118.741C333.915 131.743 327.978 146.741 325.619 162.527C323.259 178.314 324.545 194.448 329.372 209.631C334.199 224.815 342.432 238.624 353.409 249.947C362.658 262.734 375.029 272.792 389.275 279.109V304.138C352.526 309.525 304.132 332.992 295.677 365.022C288.308 392.935 280.442 423.589 276.528 441.586C310.074 465.771 380.465 479.972 424.579 479.972C466.493 479.972 534.999 467.155 567.557 445.133C564.031 425.357 555.917 393.357 548.227 364.72ZM481.028 75.9755C481.028 76.3313 481.013 76.6834 480.995 77.0344C480.749 72.6205 479.051 68.4227 476.179 65.1269C473.307 61.831 469.43 59.632 465.183 58.8891C465.552 58.2484 465.903 57.5966 466.238 56.9337C470.439 57.9217 474.19 60.3431 476.877 63.802C479.563 67.2608 481.027 71.5526 481.028 75.9755V75.9755Z" fill="url(#paint0_linear)"/>
<path d="M424.507 473.137C465.226 473.137 531.781 460.684 563.412 439.289C559.986 420.077 552.103 388.989 544.633 361.167C535.119 325.734 475.072 301.17 439.252 301.17H404.735C368.803 301.17 308.67 325.876 299.276 361.461C292.117 388.578 284.475 418.359 280.673 435.844C313.264 459.34 381.649 473.137 424.507 473.137Z" fill="#00D7D7"/>
<path d="M423.852 278.884C477.204 278.884 520.455 234.507 520.455 179.765C520.455 125.024 477.204 80.6472 423.852 80.6472C370.5 80.6472 327.249 125.024 327.249 179.765C327.249 234.507 370.5 278.884 423.852 278.884Z" fill="#2F2E41"/>
<path d="M397.77 248.662H448.313C450.319 248.662 452.242 249.479 453.661 250.935C455.079 252.39 455.876 254.363 455.876 256.421V309.446C455.876 313.63 455.072 317.773 453.512 321.638C451.951 325.504 449.664 329.016 446.781 331.974C443.897 334.933 440.474 337.279 436.707 338.88C432.94 340.482 428.902 341.306 424.824 341.306H421.259C417.182 341.306 413.144 340.482 409.376 338.88C405.609 337.279 402.186 334.933 399.303 331.974C396.419 329.016 394.132 325.504 392.572 321.638C391.011 317.773 390.208 313.63 390.208 309.446V256.421C390.208 255.402 390.404 254.393 390.784 253.452C391.164 252.51 391.721 251.655 392.423 250.935C393.125 250.214 393.959 249.642 394.876 249.253C395.794 248.863 396.777 248.662 397.77 248.662V248.662Z" fill="#FBBEBE"/>
<path opacity="0.05" d="M426.075 293.554C436.952 293.561 447.728 291.43 457.824 287.277C457.306 279.097 453.775 271.425 447.947 265.817C442.119 260.21 434.429 257.088 426.44 257.084H423.748C415.891 257.086 408.319 260.102 402.519 265.541C396.719 270.979 393.111 278.446 392.404 286.475C403.042 291.158 414.499 293.567 426.075 293.554V293.554Z" fill="black"/>
<path d="M424.023 285.132C471.224 285.132 509.487 245.872 509.487 197.443C509.487 149.013 471.224 109.753 424.023 109.753C376.823 109.753 338.559 149.013 338.559 197.443C338.559 245.872 376.823 285.132 424.023 285.132Z" fill="#FBBEBE"/>
<path d="M395.077 101.736C405.293 101.736 413.575 93.2385 413.575 82.7561C413.575 72.2737 405.293 63.776 395.077 63.776C384.86 63.776 376.578 72.2737 376.578 82.7561C376.578 93.2385 384.86 101.736 395.077 101.736Z" fill="#2F2E41"/>
<path d="M460.849 101.736C471.065 101.736 479.347 93.2385 479.347 82.7561C479.347 72.2737 471.065 63.776 460.849 63.776C450.633 63.776 442.351 72.2737 442.351 82.7561C442.351 93.2385 450.633 101.736 460.849 101.736Z" fill="#2F2E41"/>
<path d="M425.908 89.0828C446.34 89.0828 462.904 72.0874 462.904 51.1226C462.904 30.1578 446.34 13.1624 425.908 13.1624C405.475 13.1624 388.911 30.1578 388.911 51.1226C388.911 72.0874 405.475 89.0828 425.908 89.0828Z" fill="#2F2E41"/>
<path d="M464.96 59.5582C461.281 59.5524 457.686 60.6773 454.636 62.7877C458.88 61.2319 463.532 61.32 467.717 63.0355C471.902 64.751 475.333 67.9758 477.364 72.1037C479.394 76.2316 479.886 80.9785 478.746 85.4521C477.606 89.9258 474.913 93.8182 471.172 96.3978C475.278 94.8976 478.736 91.9572 480.934 88.0957C483.133 84.2342 483.931 79.7 483.188 75.2934C482.445 70.8868 480.208 66.8914 476.873 64.0123C473.538 61.1332 469.318 59.5556 464.96 59.5582V59.5582Z" fill="#2F2E41"/>
<path d="M432.074 6.83577C423.486 6.82239 415.163 9.88728 408.544 15.5009C416.641 11.084 426.048 9.91022 434.941 12.2071C443.834 14.504 451.578 20.1078 456.672 27.9316C461.766 35.7555 463.846 45.2416 462.509 54.55C461.172 63.8584 456.513 72.3256 449.436 78.3091C456.726 74.3346 462.511 67.9725 465.87 60.2353C469.229 52.4981 469.969 43.8304 467.972 35.6118C465.976 27.3932 461.357 20.096 454.852 14.8814C448.347 9.6669 440.329 6.83478 432.074 6.83577V6.83577Z" fill="#2F2E41"/>
<path d="M362.191 118.607C362.191 118.607 372.468 188.201 501.957 150.241L438.24 93.3006L362.191 118.607Z" fill="#2F2E41"/>
<path d="M144.796 517.159H91.5896C81.695 517.159 73.6738 525.389 73.6738 535.541V537.651C73.6738 547.803 81.695 556.033 91.5896 556.033H144.796C154.691 556.033 162.712 547.803 162.712 537.651V535.541C162.712 525.389 154.691 517.159 144.796 517.159Z" fill="#535461"/>
<g opacity="0.7">
<path opacity="0.7" d="M762.753 492.325V478.317H694.491V543.104C694.491 546.726 695.893 550.2 698.39 552.762C700.886 555.323 704.272 556.762 707.802 556.762H749.442C752.973 556.762 756.358 555.323 758.855 552.762C761.351 550.2 762.753 546.726 762.753 543.104V528.746C767.46 528.746 771.975 526.827 775.303 523.412C778.632 519.997 780.502 515.365 780.502 510.536C780.502 505.706 778.632 501.074 775.303 497.659C771.975 494.244 767.46 492.325 762.753 492.325V492.325ZM762.753 521.742V499.329C765.648 499.333 768.423 500.515 770.469 502.616C772.515 504.717 773.664 507.566 773.664 510.536C773.664 513.506 772.515 516.354 770.469 518.456C768.423 520.557 765.648 521.739 762.753 521.742V521.742Z" fill="url(#paint1_linear)"/>
</g>
<path d="M760.557 494.518C757.352 494.518 754.219 495.493 751.554 497.32C748.889 499.147 746.812 501.744 745.586 504.782C744.359 507.82 744.038 511.163 744.663 514.388C745.289 517.614 746.832 520.576 749.098 522.902C751.365 525.227 754.252 526.811 757.396 527.452C760.539 528.094 763.797 527.764 766.758 526.506C769.719 525.247 772.25 523.116 774.031 520.382C775.811 517.648 776.762 514.433 776.762 511.145C776.762 508.961 776.343 506.799 775.528 504.782C774.714 502.765 773.52 500.932 772.016 499.388C770.511 497.844 768.724 496.619 766.758 495.784C764.792 494.948 762.685 494.518 760.557 494.518ZM760.557 521.377C758.585 521.377 756.657 520.777 755.017 519.652C753.377 518.528 752.099 516.93 751.344 515.06C750.589 513.191 750.391 511.133 750.776 509.149C751.161 507.164 752.111 505.341 753.505 503.91C754.9 502.479 756.677 501.504 758.611 501.109C760.546 500.715 762.551 500.917 764.373 501.692C766.195 502.466 767.753 503.778 768.849 505.46C769.944 507.143 770.529 509.121 770.529 511.145C770.529 513.858 769.479 516.461 767.608 518.38C765.738 520.299 763.202 521.377 760.557 521.377Z" fill="#6C63FF"/>
<path opacity="0.1" d="M760.557 494.518C757.352 494.518 754.219 495.493 751.554 497.32C748.889 499.147 746.812 501.744 745.586 504.782C744.359 507.82 744.038 511.163 744.663 514.388C745.289 517.614 746.832 520.576 749.098 522.902C751.365 525.227 754.252 526.811 757.396 527.452C760.539 528.094 763.797 527.764 766.758 526.506C769.719 525.247 772.25 523.116 774.031 520.382C775.811 517.648 776.762 514.433 776.762 511.145C776.762 508.961 776.343 506.799 775.528 504.782C774.714 502.765 773.52 500.932 772.016 499.388C770.511 497.844 768.724 496.619 766.758 495.784C764.792 494.948 762.685 494.518 760.557 494.518ZM760.557 521.377C758.585 521.377 756.657 520.777 755.017 519.652C753.377 518.528 752.099 516.93 751.344 515.06C750.589 513.191 750.391 511.133 750.776 509.149C751.161 507.164 752.111 505.341 753.505 503.91C754.9 502.479 756.677 501.504 758.611 501.109C760.546 500.715 762.551 500.917 764.373 501.692C766.195 502.466 767.753 503.778 768.849 505.46C769.944 507.143 770.529 509.121 770.529 511.145C770.529 513.858 769.479 516.461 767.608 518.38C765.738 520.299 763.202 521.377 760.557 521.377Z" fill="#535461"/>
<path d="M698.23 481.728H760.557V540.816C760.557 544.14 759.27 547.329 756.979 549.68C754.687 552.031 751.58 553.351 748.339 553.351H710.448C707.208 553.351 704.1 552.031 701.809 549.68C699.518 547.329 698.23 544.14 698.23 540.816V481.728Z" fill="#535461"/>
<path d="M826 553.351H17V581.489H826V553.351Z" fill="#E0E0E0"/>
<g opacity="0.7">
<path opacity="0.7" d="M575.352 350.079H267.648C257.613 350.079 249.478 358.425 249.478 368.722V534.709C249.478 545.005 257.613 553.351 267.648 553.351H575.352C585.387 553.351 593.522 545.005 593.522 534.709V368.722C593.522 358.425 585.387 350.079 575.352 350.079Z" fill="url(#paint2_linear)"/>
</g>
<path d="M553.662 353.829H289.338C270.766 353.829 255.711 369.276 255.711 388.331V518.849C255.711 537.904 270.766 553.351 289.338 553.351H553.662C572.234 553.351 587.289 537.904 587.289 518.849V388.331C587.289 369.276 572.234 353.829 553.662 353.829Z" fill="#535461"/>
<path d="M421.5 465.101C427.696 465.101 432.719 459.948 432.719 453.59C432.719 447.233 427.696 442.079 421.5 442.079C415.304 442.079 410.281 447.233 410.281 453.59C410.281 459.948 415.304 465.101 421.5 465.101Z" fill="white"/>
<path opacity="0.1" d="M749.338 481.728V540.881C749.338 544.189 748.058 547.36 745.779 549.699C743.499 552.038 740.408 553.351 737.185 553.351H743.417C746.641 553.351 749.732 552.038 752.011 549.699C754.29 547.36 755.571 544.189 755.571 540.881V481.728H749.338Z" fill="black"/>
<path d="M710.53 434.052C709.997 434.069 709.474 434.206 708.998 434.454C708.522 434.702 708.106 435.054 707.777 435.485C706.96 437.006 708.441 438.721 709.793 439.766C712.291 441.696 714.924 443.592 716.621 446.287C718.319 448.981 718.852 452.741 716.997 455.324C714.573 458.695 708.792 459.421 708.232 463.57C707.873 466.235 710.118 468.508 712.392 469.845C718.007 473.144 725.244 474.025 729.31 479.188C730.993 475.639 734.755 473.587 738.506 472.711C742.257 471.835 746.153 471.9 749.956 471.306C750.577 471.294 751.187 471.132 751.736 470.833C752.285 470.534 752.757 470.107 753.115 469.587C754.178 467.373 751.149 464.718 752.194 462.496C752.99 460.805 755.328 460.936 757.035 460.259C759.815 459.156 760.962 455.485 760.173 452.536C759.384 449.587 757.155 447.283 754.811 445.393C748.496 440.301 740.901 437.306 733.22 435.152C729.647 434.15 725.453 432.579 721.743 432.428C718.16 432.281 714.075 433.429 710.53 434.052Z" fill="#EEEEEE"/>
</g>
<defs>
<linearGradient id="paint0_linear" x1="422.043" y1="479.972" x2="422.043" y2="0" gradientUnits="userSpaceOnUse">
<stop stop-color="#808080" stop-opacity="0.25"/>
<stop offset="0.53514" stop-color="#808080" stop-opacity="0.12"/>
<stop offset="1" stop-color="#808080" stop-opacity="0.1"/>
</linearGradient>
<linearGradient id="paint1_linear" x1="64648.3" y1="56081" x2="64648.3" y2="51294.9" gradientUnits="userSpaceOnUse">
<stop stop-color="#808080" stop-opacity="0.25"/>
<stop offset="0.53514" stop-color="#808080" stop-opacity="0.12"/>
<stop offset="1" stop-color="#808080" stop-opacity="0.1"/>
</linearGradient>
<linearGradient id="paint2_linear" x1="111308" y1="110760" x2="111308" y2="78622.4" gradientUnits="userSpaceOnUse">
<stop stop-color="#808080" stop-opacity="0.25"/>
<stop offset="0.53514" stop-color="#808080" stop-opacity="0.12"/>
<stop offset="1" stop-color="#808080" stop-opacity="0.1"/>
</linearGradient>
<clipPath id="clip0">
<rect width="862.844" height="574" fill="white"/>
</clipPath>
</defs>
</svg>
